<?xml version="1.0" encoding="utf-8"?>
<!-- Generator: Adobe Illustrator 24.1.1, SVG Export Plug-In . SVG Version: 6.00 Build 0)  -->
<svg version="1.1" id="ec936c20-b43f-4483-857e-3751b9040ca4"
	 xmlns="http://www.w3.org/2000/svg" xmlns:xlink="http://www.w3.org/1999/xlink" x="0px" y="0px" viewBox="0 0 791.2 658.5"
	 style="enable-background:new 0 0 791.2 658.5;" xml:space="preserve">
<style type="text/css">
	.st0{fill:#5ECEE7;}
	.st1{fill:#3F3D56;}
	.st2{fill:#D0CDE1;}
	.st3{fill:#FFB8B8;}
	.st4{fill:#2F2E41;}
	.st5{fill:#575A89;}
	.st6{opacity:0.2;enable-background:new    ;}
</style>
<path class="st0" d="M373.2,626.1c-1,0-2,0.4-2.8,1c-2.4-6.3-6.1-10.4-10.3-10.4s-7.9,4.1-10.3,10.4c-0.8-0.6-1.8-1-2.8-1
	c-4.7,0-8.6,8-8.6,17.9h43.4C381.8,634.1,377.9,626.1,373.2,626.1z"/>
<path class="st0" d="M266.2,626.1c-1,0-2,0.4-2.8,1c-2.4-6.3-6.1-10.4-10.3-10.4c-4.2,0-7.9,4.1-10.3,10.4c-0.8-0.6-1.8-1-2.8-1
	c-4.7,0-8.6,8-8.6,17.9h43.4C274.8,634.1,270.9,626.1,266.2,626.1z"/>
<path class="st0" d="M682.2,626.1c-1,0-2,0.4-2.8,1c-2.4-6.3-6.1-10.4-10.3-10.4s-7.9,4.1-10.3,10.4c-0.8-0.6-1.8-1-2.8-1
	c-4.7,0-8.6,8-8.6,17.9h43.4C690.8,634.1,686.9,626.1,682.2,626.1z"/>
<rect x="197" y="642.3" class="st1" width="581" height="2"/>
<path class="st1" d="M371.8,644h-61.4v-1c0-14.3,5.6-25.5,12.8-25.5c1.2,0,2.3,0.3,3.4,0.9c3.6-8.8,8.9-13.8,14.6-13.8
	s11,5,14.6,13.8c1-0.6,2.2-0.9,3.4-0.9c7.2,0,12.8,11.2,12.8,25.5V644z M312.4,642h57.4c-0.2-12.3-5.1-22.5-10.7-22.5
	c-1.2,0-2.3,0.4-3.3,1.2l-1.1,0.8l-0.5-1.2c-3.3-8.7-8.1-13.6-13.2-13.6s-9.9,5-13.2,13.6l-0.5,1.2l-1.1-0.8
	c-0.9-0.7-2.1-1.1-3.3-1.2C317.4,619.5,312.6,629.7,312.4,642z"/>
<path class="st1" d="M729.8,644h-61.4v-1c0-14.3,5.6-25.5,12.8-25.5c1.2,0,2.3,0.3,3.4,0.9c3.6-8.8,8.9-13.8,14.6-13.8
	c5.7,0,11,5,14.6,13.8c1-0.6,2.2-0.9,3.4-0.9c7.2,0,12.8,11.2,12.8,25.5V644z M670.4,642h57.4c-0.2-12.3-5.1-22.5-10.7-22.5
	c-1.2,0-2.3,0.4-3.3,1.2l-1.1,0.8l-0.5-1.2c-3.3-8.7-8.1-13.6-13.2-13.6c-5.1,0-9.9,5-13.2,13.6l-0.5,1.2l-1.1-0.8
	c-0.9-0.7-2.1-1.1-3.3-1.2C675.4,619.5,670.6,629.7,670.4,642L670.4,642z"/>
<path class="st1" d="M272.8,644h-61.4v-1c0-14.3,5.6-25.5,12.8-25.5c1.2,0,2.3,0.3,3.4,0.9c3.6-8.8,8.9-13.8,14.6-13.8
	s11,5,14.6,13.8c1-0.6,2.2-0.9,3.4-0.9c7.2,0,12.8,11.2,12.8,25.5V644z M213.4,642h57.4c-0.2-12.3-5.1-22.5-10.7-22.5
	c-1.2,0-2.3,0.4-3.3,1.2l-1.1,0.8l-0.5-1.2c-3.3-8.7-8.1-13.6-13.2-13.6s-9.9,5-13.2,13.6l-0.5,1.2l-1.1-0.8
	c-0.9-0.7-2.1-1.1-3.3-1.2C218.4,619.5,213.6,629.7,213.4,642z"/>
<ellipse transform="matrix(0.535 -0.8449 0.8449 0.535 -7.6505 551.7327)" class="st1" cx="497.4" cy="282.8" rx="0.6" ry="1.7"/>
<path class="st0" d="M496,278.2L496,278.2c0.9-1.4,2.7-1.8,4.1-0.9c0,0,0,0,0,0l37.7,23.9c1.4,0.9,1.8,2.7,0.9,4.1l0,0l0,0l0,0
	L496,278.2L496,278.2z"/>
<path class="st1" d="M492.5,279.5l1.2-1.9c0.6-0.9,1.9-1.2,2.8-0.6l0,0l43,27.2c1.1,0.7,1.5,2.2,0.7,3.3l-1,1.6l0,0L492.5,279.5
	L492.5,279.5z"/>
<rect x="499.7" y="280" transform="matrix(0.535 -0.8449 0.8449 0.535 -5.4991 553.5088)" class="st2" width="0.9" height="3.4"/>
<rect x="503.6" y="282.6" transform="matrix(0.535 -0.8449 0.8449 0.535 -5.7759 558.0127)" class="st2" width="0.9" height="3.4"/>
<circle class="st3" cx="559.8" cy="168.8" r="26.8"/>
<path class="st3" d="M561.4,187.8c0,0,13.1,20.6,9.8,26.5s-13.4,21.9-13.4,21.9s45.1-33.4,39.3-40.6c0,0-13.4-11.4-14.1-18.6
	L561.4,187.8z"/>
<polygon class="st3" points="582.3,581.6 583.7,602.2 604.6,598.6 603.3,578.7 "/>
<polygon class="st3" points="489.1,593.1 485.2,606.2 508.4,610.4 511.7,598.3 "/>
<path class="st4" d="M584.5,304.1l2.1,14.6c0,0,26.8,53.3-2.3,79.5l-39.3,96.8c0,0-4.3,50.4-16.7,68l-11.4,40.2l-34-8.8l27.5-87.3
	c0,0-0.3-36.6,3.6-44.8l17.3-77.8l3.1-83.2C534.4,301.2,580.2,297.9,584.5,304.1z"/>
<path class="st4" d="M579.4,394.8l14.7,99.4c0,0,7.8,38.3,8.5,53s3.3,33.7,3.3,33.7l-26.5,4.3L553.2,457L579.4,394.8z"/>
<path class="st4" d="M608.5,588.1l-20.9,1.3c0,0-7.8-8.8-7.3-4.3s-4.4,23.9-4.4,23.9l-16.4,17c0,0-32.4,0-27.5,15.7
	s43.2,2.6,43.2,2.6l14.7-4.9v6.5c0,0,25.2,3.6,25.8-2.9s0-14.7-1-15.4S608.5,588.1,608.5,588.1z"/>
<path class="st4" d="M511.8,604.3c0,0-15-1.2-17.1-3s-5.4-9.3-9.9-4.5s-20.6,20.3-20.6,20.3l-15.6,7.5c0,0-20.3-5.4-27.2,7.2
	s33.8,25.7,44.3,21.5l13.2-2.7l-0.6,6.3c0,0,18.6,4.2,21.2-1.2s4.8-11.7,3.6-13.5S511.8,604.3,511.8,604.3z"/>
<path class="st5" d="M622.2,229l-23.2,51.3L589,302.5l-3.7,8.3l-54-0.7l5.6-37.6c-7.8-20.3,10.8-28.5,10.8-28.5l15.7-16.7v2.7
	c0,0,15.4-18.3,22.2-28.8s16.4-6.5,16.4-6.5C618.3,193.1,622.2,229,622.2,229z"/>
<path class="st6" d="M599.1,280.3L589,302.5c-3.2-6-5.7-12.9-5.7-16.9c0-11.1,11.1-5.2,11.1-5.2s-9-49.2-9-63.9
	C585.4,206.7,593.6,250,599.1,280.3z"/>
<path class="st3" d="M590.2,284l-48.7-1c0,0-35.7,2.9-30.4,17.3s33.7,0,33.7,0l56.9,8.8L590.2,284z"/>
<path class="st5" d="M599.4,197.3c0,0-17,1.3-17,16s15.4,67.1,15.4,67.1s-11.1-5.9-11.1,5.2s18.6,43.5,20.6,21.9
	c0,0,28.1,13.7,26.5-12.1S614.4,215,614.4,215S612.4,196.3,599.4,197.3z"/>
<path class="st4" d="M560.7,165.9c-1.9-1.8-1.8-4.9-3.4-7c-2.4-3.3-7.3-3.1-11.4-2.5c-2.7,0.3-5.4,0.9-7.9,1.8
	c-2.3,0.9-4,2.9-4.6,5.3c-0.3,1.3-1-2.4-1.7-7.3c-1.5-10.1,3.7-20.1,12.9-24.6c0.1,0,0.1-0.1,0.2-0.1c4.6-2.2,9.4-4.2,14.5-4.8
	s10.5,0.4,14.5,3.6c1.8,1.5,3.3,3.3,5.3,4.6c3.4,2.3,7.8,2.4,11.8,2.8c4.6,0.4,9.1,1.8,13.2,4.1c4.1,2.3,7.1,6.1,8.4,10.7
	c1.3,5.3-0.8,11.5-6,13.8c-0.9,0.4-1.7,1-2.3,1.7c-4.2,5.2,2.6,8,3.6,12.5c0.8,3.8-2.8,7.2-6.5,8.2c-7.2,1.8-14.7-1.8-17.8-8.5
	c-1.3-3-1.6-6.2-1.9-9.4c-0.4-3.7-10-10.3-3.5-5.3c1.3,0.9,2.3,2.2,2.9,3.6c2,4.7-2.1,7.4-4.3,10.8c-2.4,3.9-2.5,8.8-0.1,12.7
	c-5.8-3.2-8.5-10.2-6.4-16.5c0.6-1.6,1.5-3.1,2-4.7c0.8-2.5,0.1-7.4-3.6-6.5C565.7,165.8,563.5,168.6,560.7,165.9z"/>
<circle class="st2" cx="779.2" cy="498.4" r="12"/>
<circle class="st0" cx="749.2" cy="537.4" r="20"/>
<rect x="753.6" y="549.4" class="st1" width="2" height="93"/>
<path class="st1" d="M755.2,551.4c-11.6,0-21-9.4-21-21s9.4-21,21-21s21,9.4,21,21l0,0C776.2,542,766.8,551.4,755.2,551.4z
	 M755.2,511.4c-10.5,0-19,8.5-19,19s8.5,19,19,19s19-8.5,19-19C774.2,519.9,765.7,511.4,755.2,511.4z"/>
<path class="st1" d="M772.2,515.4c-7.2,0-13-5.8-13-13s5.8-13,13-13s13,5.8,13,13l0,0C785.2,509.6,779.4,515.4,772.2,515.4z
	 M772.2,491.4c-6.1,0-11,4.9-11,11s4.9,11,11,11s11-4.9,11-11l0,0C783.2,496.3,778.3,491.4,772.2,491.4z"/>
<path class="st0" d="M440,299.2L404,264H240.8V163h214v101h-15.2L440,299.2z M242.8,262h162l33.1,32.4l-0.3-32.4h15.2v-97h-210
	L242.8,262z"/>
<path class="st0" d="M52.6,136.2l0.3-35.2H37.8V0h214v101H88.5L52.6,136.2z M39.8,99h15.2l-0.3,32.4L87.7,99h162V2h-210V99z"/>
<rect x="76.8" y="32" class="st0" width="128" height="2"/>
<path class="st0" d="M289.9,237.1l-17.8-17.8c-5.1-5.1-5.1-13.4,0-18.5c4.8-4.8,12.6-5.1,17.8-0.7c5.5-4.7,13.7-4.1,18.4,1.4
	c4.5,5.2,4.2,12.9-0.7,17.8L289.9,237.1z M281.3,199c-6.1,0-11.1,4.9-11.1,11.1c0,2.9,1.2,5.8,3.2,7.8l16.4,16.4l16.4-16.4
	c4.3-4.3,4.3-11.3,0-15.7c-4.3-4.3-11.3-4.3-15.7,0l-0.7,0.7l-0.7-0.7C287.1,200.2,284.3,199,281.3,199L281.3,199z"/>
<path class="st0" d="M351.9,208c-1.1-1.1-3-1.1-4.1,0c-1.1,1.1-1.1,3,0,4.1c0,0,0,0,0,0l4.1,4.1l4.1-4.1c1.1-1.1,1.1-3,0-4.1
	C354.9,206.9,353,206.9,351.9,208C351.9,208,351.9,208,351.9,208z"/>
<path class="st0" d="M334.9,208c-1.1-1.1-3-1.1-4.1,0c-1.1,1.1-1.1,3,0,4.1c0,0,0,0,0,0l4.1,4.1l4.1-4.1c1.1-1.1,1.1-3,0-4.1
	C337.9,206.9,336,206.9,334.9,208C334.9,208,334.9,208,334.9,208z"/>
<path class="st0" d="M343.8,239c-12.2,0-22-9.8-22-22s9.8-22,22-22s22,9.8,22,22l0,0C365.7,229.1,355.9,239,343.8,239z M343.8,197
	c-11,0-20,9-20,20s9,20,20,20s20-9,20-20C363.8,206,354.8,197,343.8,197z"/>
<path class="st0" d="M397.8,239c-12.2,0-22-9.8-22-22s9.8-22,22-22s22,9.8,22,22l0,0C419.7,229.1,409.9,239,397.8,239z M397.8,197
	c-11,0-20,9-20,20s9,20,20,20s20-9,20-20C417.8,206,408.8,197,397.8,197z"/>
<circle class="st0" cx="406.8" cy="210" r="5"/>
<circle class="st0" cx="389.8" cy="210" r="5"/>
<path class="st0" d="M391.5,221c-2,14.1,14.2,17,12.5,0C404.2,221,392.2,221,391.5,221z"/>
<path class="st0" d="M336.1,223.9c4.6,6.1,12.5,6.7,16.7,0H336.1z"/>
<rect x="77" y="47.3" class="st0" width="128" height="2"/>
<rect x="77" y="61.3" class="st0" width="128" height="2"/>
<rect y="135.3" class="st1" width="107" height="2"/>
<rect x="382" y="298.3" class="st1" width="107" height="2"/>
</svg>
