<?xml version="1.0" encoding="utf-8"?>
<!-- Generator: Adobe Illustrator 24.1.1, SVG Export Plug-In . SVG Version: 6.00 Build 0)  -->
<svg version="1.1" id="b4f7138d-771a-4302-9114-b1a94238dcbb"
	 xmlns="http://www.w3.org/2000/svg" xmlns:xlink="http://www.w3.org/1999/xlink" x="0px" y="0px" viewBox="0 0 269.6 492.7"
	 style="enable-background:new 0 0 269.6 492.7;" xml:space="preserve">
<style type="text/css">
	.st0{fill:#5ECEE7;}
	.st1{opacity:0.1;enable-background:new    ;}
	.st2{fill:#2F2E41;}
	.st3{fill:#A0616A;}
	.st4{fill:#D0CDE1;}
	.st5{fill:#575A89;}
	.st6{fill:#3F3D56;}
	.st7{fill:#F7931E;}
	.st8{fill:#EAA05C;}
	.st9{fill:#AED3FF;}
	.st10{fill:#F29C61;}
	.st11{fill:#333333;}
	.st12{opacity:0.3;fill:#D84119;}
	.st13{fill:#808080;}
	.st14{fill:#FFFFFF;}
	.st15{fill:#D30909;}
	.st16{fill:#666666;}
	.st17{fill:#B3B3B3;}
	.st18{opacity:0.2;fill:#FFFFFF;}
	.st19{fill:#0071BC;}
	.st20{fill:#42210B;}
	.st21{fill:#E57C13;}
	.st22{fill:#350A04;}
	.st23{fill:#632E11;}
	.st24{fill:#F9BE78;}
	.st25{fill:#E33C14;}
	.st26{opacity:0.2;fill:#632E11;}
	.st27{fill:#F2F2F2;}
	.st28{fill:#DD491B;}
	.st29{opacity:0.5;fill:#D30909;}
</style>
<polygon class="st7" points="55.8,243.7 79.2,243.7 79.2,252.1 63.9,252.1 63.9,460.8 55.8,460.8 "/>
<rect x="55.8" y="457" transform="matrix(-1 -1.224647e-16 1.224647e-16 -1 119.7229 917.7869)" width="8" height="3.8"/>
<polygon points="79.2,243.7 79.2,252.5 64.8,252.5 64.8,275.3 54.7,275.3 54.7,252.5 54.7,250.9 54.7,243.7 "/>
<path class="st8" d="M81.8,237.6l-1.7,0.6l-2.8,1.4l-5.8,8.5l-7.7,2.4l-2.6,3c-1.6-0.7-2.2-2.6-1.5-4.1c0.8-1.6,2-3,3.3-4.2l3.5-1.2
	l-9.9-0.7l-8.2,10.7c-0.7,1.1-2.3,1-2.9-0.1l8.2-15.5l7.8-7.5l11.8-2.2l5.3-4.7L81.8,237.6z"/>
<g>
	<path class="st9" d="M83.4,236.9l-9-10.3c-1.6-1.9-1.4-4.7,0.5-6.3l34.5-28.7l4.6-55.2c-0.1-7.3,5.9-13.3,13.2-13.1l0,0
		c7.3,0.2,14.4,6.1,14.8,17.1l-9.4,57.1c-0.4,3.4-2.2,6.5-5,8.5l-38.1,31.4C87.8,239,85,238.8,83.4,236.9z"/>
</g>
<path class="st10" d="M171.5,106.2c2.2,0,4.2-0.6,6-1.8V120h-22.1v-15.6c1.8,1.2,3.9,1.8,6,1.8H171.5z"/>
<path class="st11" d="M188.9,121.6h-42.4V108c0-2.7,2.1-4.8,4.8-4.8h32.8c2.7,0,4.8,2.2,4.8,4.8V121.6z"/>
<polygon points="206.1,245.2 204.8,440.6 173.3,440.6 166.2,279.2 166.2,279.2 159.1,440.6 127.6,440.6 126.3,245.2 "/>
<path class="st10" d="M135.5,70.5L135.5,70.5c1-0.8,2.3-1.2,3.7-1.2h2.8l-0.1,1.8l-0.7,10.8h-1.9c-3.5,0-6.3-2.8-6.3-6.3
	C133,73.5,134,71.6,135.5,70.5z"/>
<path class="st8" d="M141.8,90.9l12,12.1c2.1,2.1,4.8,3.2,7.8,3.2h10c2.9,0,5.7-1.2,7.8-3.2l12-12.1c0.8-0.8,1.1-1.9,1.1-3.1
	l-2.8-42.9h-46.1l-2.8,42.9C140.7,88.9,141.1,90,141.8,90.9z"/>
<path class="st12" d="M140.1,71.7c-0.9,0-1.8,0.3-2.5,0.9c-0.9,0.7-1.4,1.8-1.4,3l0,0c0,2.1,1.7,3.9,3.9,3.9h1.2l0.4-6.7l0.1-1.1
	H140.1z"/>
<path class="st10" d="M197.7,70.5L197.7,70.5c-1-0.8-2.3-1.2-3.7-1.2h-2.8l0.1,1.8l0.7,10.8h1.9c3.5,0,6.3-2.8,6.3-6.3
	C200.2,73.5,199.2,71.6,197.7,70.5z"/>
<path class="st12" d="M193.1,71.7c0.9,0,1.8,0.3,2.5,0.9c0.9,0.7,1.4,1.8,1.4,3l0,0c0,2.1-1.7,3.9-3.9,3.9h-1.2l-0.4-6.7l-0.1-1.1
	H193.1z"/>
<path d="M178,67c2.8,0,5.2,1.7,6.2,4.2h-12.3C172.8,68.8,175.2,67,178,67z"/>
<path d="M154.3,67c2.8,0,5.2,1.7,6.2,4.2h-12.3C149.1,68.8,151.5,67,154.3,67z"/>
<rect x="173.2" y="60.3" transform="matrix(-1 -1.224647e-16 1.224647e-16 -1 356.7891 123.9722)" class="st13" width="10.4" height="3.3"/>
<rect x="148.7" y="60.3" transform="matrix(-1 -1.224647e-16 1.224647e-16 -1 307.7692 123.9722)" class="st13" width="10.4" height="3.3"/>
<path class="st14" d="M177.1,69.3c0,0.5,0.4,0.9,0.9,0.9c0.5,0,0.9-0.4,0.9-0.9s-0.4-0.9-0.9-0.9C177.5,68.4,177.1,68.8,177.1,69.3z
	"/>
<path class="st14" d="M153.7,69.3c0,0.5,0.4,0.9,0.9,0.9s0.9-0.4,0.9-0.9s-0.4-0.9-0.9-0.9S153.7,68.8,153.7,69.3z"/>
<path class="st15" d="M166.6,94.2c-3.1,0-6.1-1.1-8.7-2.9h17.4C172.7,93.1,169.7,94.2,166.6,94.2z"/>
<path class="st16" d="M189.3,28.7c3.1,0.6,5.4,3.2,5.4,6.1l-2.2,53h0l-2.5-38.8c-0.1-2.3-2-4.1-4.3-4.1h-0.7l-1,0.5
	c-2.3,1.3-4.9,1.9-7.5,1.9H156c-3,0-5.9-0.9-8.4-2.5l0,0l0,0c-2.3,0-4.2,1.8-4.3,4.1l-2.5,38.8l-2.3-53c0-2.9,2.2-5.5,5.3-6.1l0,0
	c4.6-1,9.2-1.7,13.8-2.1l0,0c6-0.5,12-0.5,18,0l0.1,0c4.1,0.4,8.1,0.9,12.1,1.8L189.3,28.7z"/>
<path class="st17" d="M192.2,76c0,0-0.7,7.7-1.7,10.2c-1,2.4-6,2.9-6,2.9l0.9-3.4c0,0-2.4,2.9-5.5,1.5c-3.1-1.4-5.3-3-6.8-3
	c-1.5,0-5.7,1.1-5.7,1.1l-0.2,5.5l7.9-0.4c0,0,2.4,0.7,1.2,1.6c-1.1,0.9-3.1,1.9-5.5,2.8c-1.3,0.5-2.5,0.5-3.4,0.5h-1.1
	c-0.8,0-2,0-3.4-0.5c-2.4-0.8-4.4-1.9-5.5-2.8c-1.1-0.9,1.2-1.6,1.2-1.6l7.9,0.4l-0.2-5.5c0,0-4.2-1.1-5.7-1.1c-1.5,0-3.8,1.6-6.8,3
	c-3,1.4-5.5-1.5-5.5-1.5l0.9,3.4c0,0-5-0.5-6-2.9c-1-2.4-1.7-10.2-1.7-10.2s-1.6,6.7-1.5,9.1c0.1,2.4-0.3,7.2,1.9,9.5
	c2.2,2.3,3.8,4.6,6.3,6.5c2.5,1.9,5.1,3.3,7.9,5.1c2.8,1.8,4.3-0.7,5.4,0c1.1,0.7,1.6,1.6,3.3,1.6c0.8,0,1.5-0.4,2.1-0.8
	c0.6,0.4,1.3,0.8,2.1,0.8c1.7,0,2.2-0.9,3.3-1.6c1.1-0.7,2.6,1.8,5.4,0c2.8-1.8,5.4-3.3,7.9-5.1c2.5-1.9,4.1-4.2,6.3-6.5
	c2.2-2.3,1.8-7,1.9-9.5C193.8,82.6,192.2,76,192.2,76z"/>
<g>
	<path class="st18" d="M154.3,64.3c-3.6,0-6.4,2.9-6.4,6.4c0,3.6,2.9,6.4,6.4,6.4s6.4-2.9,6.4-6.4C160.8,67.2,157.9,64.3,154.3,64.3
		z M151.4,68.3c-1.8,1.5-1.7,3.9-1.7,3.9s-0.7-1.2,0-3.2c0.8-2.2,3.5-3.1,3.5-3.1l1.1,1.4C154.3,67.2,152.7,67.2,151.4,68.3z"/>
	<path class="st14" d="M149.8,68.9c-0.7,2,0,3.2,0,3.2s-0.1-2.4,1.7-3.9c1.2-1,2.9-1.1,2.9-1.1l-1.1-1.4
		C153.3,65.8,150.6,66.6,149.8,68.9z"/>
</g>
<g>
	<path class="st18" d="M178.4,64.3c-3.6,0-6.4,2.9-6.4,6.4c0,3.6,2.9,6.4,6.4,6.4c3.6,0,6.4-2.9,6.4-6.4
		C184.8,67.2,181.9,64.3,178.4,64.3z M175.5,68.3c-1.8,1.5-1.7,3.9-1.7,3.9s-0.7-1.2,0-3.2c0.8-2.2,3.5-3.1,3.5-3.1l1,1.4
		C178.4,67.2,176.7,67.2,175.5,68.3z"/>
	<path class="st14" d="M173.8,68.9c-0.7,2,0,3.2,0,3.2s-0.1-2.4,1.7-3.9c1.2-1,2.9-1.1,2.9-1.1l-1-1.4
		C177.3,65.8,174.6,66.6,173.8,68.9z"/>
</g>
<path d="M194.4,67.9c-0.7-0.3-2.4-0.4-4.6,0.3c-1.6,0.5-3.1,0.9-3.9,1.1c-0.7-3.6-3.7-6.3-7.5-6.3c-4.1,0-7.4,3.3-7.7,7.3
	c-0.9-0.3-2.8-1-4.5-1c-1.6,0-3.3,0.6-4.2,0.9c-0.3-4-3.6-7.3-7.7-7.3c-3.8,0-6.8,2.7-7.5,6.3c-0.8-0.2-2.3-0.6-3.8-1
	c-2.2-0.7-3.9-0.6-4.6-0.3c-0.7,0.3,0,1.7,0,1.7s1.1-0.4,2.4-0.2c1,0.2,4.8,1.6,5.9,2c0.3,4,3.6,7.2,7.7,7.2c3.8,0,6.8-2.8,7.5-6.3
	c0.8-0.4,2.4-1.1,4.4-1.2c2,0,3.9,0.9,4.7,1.3c0.8,3.5,3.7,6.2,7.5,6.2c4.1,0,7.3-3.2,7.7-7.1c1-0.4,4.9-1.8,6-2
	c1.2-0.2,2.4,0.2,2.4,0.2S195.1,68.2,194.4,67.9z M154.3,77.2c-3.6,0-6.4-2.9-6.4-6.4c0-3.5,2.9-6.4,6.4-6.4s6.4,2.9,6.4,6.4
	C160.8,74.3,157.9,77.2,154.3,77.2z M178.4,77.2c-3.6,0-6.4-2.9-6.4-6.4c0-3.5,2.9-6.4,6.4-6.4c3.6,0,6.4,2.9,6.4,6.4
	C184.8,74.3,181.9,77.2,178.4,77.2z"/>
<path class="st19" d="M207.5,123.3c-3.7-0.9-15.2-5.6-18.6-6l-4.1,1.3c-2.4,0.7-4.9,1.3-7.3,1.6l-5.9,0.8c-3.2,0.4-6.4,0.4-9.6,0
	l-4.7-0.6c-3.7-0.5-7.4-1.5-10.8-3.1l0,0c-2.7,0-19,5.6-21.3,6.1c-4.6-0.1-2.6,45.6-2.6,45.6v85.9c0,2.6,2.1,4.8,4.8,4.8h39h39.1
	c2.6,0,4.8-1.4,4.8-4.8l6.7-124.1C217,126.1,212.2,124.4,207.5,123.3z"/>
<path class="st8" d="M206.9,237.6l-0.4,1.7l-1,3l-7.7,6.9l-1.4,8l-2.6,3c0.9,1.5,2.8,1.9,4.2,0.9c1.5-1,2.7-2.3,3.7-3.8l0.8-3.6
	l2,9.7l-9.5,9.5c-1,0.8-0.7,2.4,0.5,2.9l14.3-10.1l6.4-8.7l0.6-12l3.9-5.9L206.9,237.6z"/>
<g>
	<path class="st9" d="M217.2,248.2l-12.8-4.9c-2.3-0.9-3.5-3.5-2.5-5.8l17-41.5l-21.8-51c-3.5-6.4,0.3-18.5,6.9-21.8h2
		c9.7,1.7,12.3,2.7,17.8,12.2l18.5,54.8c1.2,3.2,1.1,6.8-0.4,9.9l-19,45.5C222,248,219.4,249.1,217.2,248.2z"/>
</g>
<path class="st20" d="M157.9,455.4h-55.2v-5.7c0-5,4.1-9.1,9.1-9.1h46.1V455.4z"/>
<rect x="101" y="455.4" class="st21" width="56.8" height="3.5"/>
<g>
	<path class="st22" d="M118.2,439.7c-0.5,0-0.9,0.4-0.9,0.9v5.1c0,0.5,0.4,0.9,0.9,0.9c0.5,0,0.9-0.4,0.9-0.9v-5.1
		C119.1,440.1,118.7,439.7,118.2,439.7z"/>
	<path class="st22" d="M123.5,439.7c-0.5,0-0.9,0.4-0.9,0.9v5.1c0,0.5,0.4,0.9,0.9,0.9c0.5,0,0.9-0.4,0.9-0.9v-5.1
		C124.4,440.1,124,439.7,123.5,439.7z"/>
	<path class="st22" d="M128.9,439.7c-0.5,0-0.9,0.4-0.9,0.9v5.1c0,0.5,0.4,0.9,0.9,0.9c0.5,0,0.9-0.4,0.9-0.9v-5.1
		C129.8,440.1,129.4,439.7,128.9,439.7z"/>
</g>
<path class="st23" d="M200.2,455.4H145v-5.7c0-5,4.1-9.1,9.1-9.1h46.1V455.4z"/>
<rect x="143.4" y="455.4" class="st7" width="56.8" height="3.5"/>
<g>
	<path class="st22" d="M160.5,439.7c-0.5,0-0.9,0.4-0.9,0.9v5.1c0,0.5,0.4,0.9,0.9,0.9c0.5,0,0.9-0.4,0.9-0.9v-5.1
		C161.4,440.1,161,439.7,160.5,439.7z"/>
	<path class="st22" d="M165.8,439.7c-0.5,0-0.9,0.4-0.9,0.9v5.1c0,0.5,0.4,0.9,0.9,0.9c0.5,0,0.9-0.4,0.9-0.9v-5.1
		C166.8,440.1,166.3,439.7,165.8,439.7z"/>
	<path class="st22" d="M171.2,439.7c-0.5,0-0.9,0.4-0.9,0.9v5.1c0,0.5,0.4,0.9,0.9,0.9c0.5,0,0.9-0.4,0.9-0.9v-5.1
		C172.1,440.1,171.7,439.7,171.2,439.7z"/>
</g>
</svg>
