<?xml version="1.0" encoding="utf-8"?>
<!-- Generator: Adobe Illustrator 24.1.1, SVG Export Plug-In . SVG Version: 6.00 Build 0)  -->
<svg version="1.1" id="b4f7138d-771a-4302-9114-b1a94238dcbb"
	 xmlns="http://www.w3.org/2000/svg" xmlns:xlink="http://www.w3.org/1999/xlink" x="0px" y="0px" viewBox="0 0 399.8 507.1"
	 style="enable-background:new 0 0 399.8 507.1;" xml:space="preserve">
<style type="text/css">
	.st0{fill:#5ECEE7;}
	.st1{opacity:0.1;enable-background:new    ;}
	.st2{fill:#2F2E41;}
	.st3{fill:#A0616A;}
	.st4{fill:#D0CDE1;}
	.st5{fill:#575A89;}
	.st6{fill:#3F3D56;}
	.st7{fill:#F7931E;}
	.st8{fill:#EAA05C;}
	.st9{fill:#AED3FF;}
	.st10{fill:#F29C61;}
	.st11{fill:#333333;}
	.st12{opacity:0.3;fill:#D84119;}
	.st13{fill:#808080;}
	.st14{fill:#FFFFFF;}
	.st15{fill:#D30909;}
	.st16{fill:#666666;}
	.st17{fill:#B3B3B3;}
	.st18{opacity:0.2;fill:#FFFFFF;}
	.st19{fill:#0071BC;}
	.st20{fill:#42210B;}
	.st21{fill:#E57C13;}
	.st22{fill:#350A04;}
	.st23{fill:#632E11;}
	.st24{fill:#F9BE78;}
	.st25{fill:#E33C14;}
	.st26{opacity:0.2;fill:#632E11;}
	.st27{fill:#F2F2F2;}
	.st28{fill:#DD491B;}
	.st29{opacity:0.5;fill:#D30909;}
</style>
<path class="st24" d="M330,191.6l1.8,0.6l3.1,0.7l6.7-3.4l9.4,1.1l4.1-0.7c0.8,1.6,0.1,3.5-1.5,4.2c-1.7,0.7-3.6,1.1-5.4,1.1l-2.9,0
	l8.7,8.2l13.6-3.1c1.3-0.4,2.5,0.7,2.2,2l-16.8,7l-11.1,0.8l-10.9-6l-7.3,0.2L330,191.6z"/>
<path class="st24" d="M38.1,129.7l-3.1-0.3l3-17.6l-5.9-19.3c0,0-1.4-0.3-2.3,0c-0.9,0.3-1.5,3.6-1.5,3.6s-1.1-1-1.6,0.9
	c-0.6,1.9-0.1,16-0.1,16s-6,14.3-5.5,18.7c0.5,4.4,1.6,5.7,3.7,6.9c2.1,1.2,13,7.7,13,7.7L38.1,129.7z"/>
<polygon class="st8" points="185.8,106 185.3,120.5 198.4,127.6 214.2,120.3 213.3,101 215,96.5 201.4,84.4 "/>
<path class="st25" d="M279.4,183l-31.7-51.4c-2.7-4.7-7.6-7.3-12.7-7.2c-2.5-0.6-5.1-0.9-8-0.9l-12.2,0.5h-16.1h-16.1l-12.3,1
	c-6,0.6-10,1.9-12.8,3.9V245c0,2.9,2.3,5.2,5.2,5.2h36h35.9c2.9,0,5.2-2.3,5.2-5.2v-77.3l23.7,31.7c2.2,3,5.6,4.9,9.3,5.3l58.2,6.4
	l2.5-20.8L279.4,183z"/>
<path class="st26" d="M279.4,183l-31.7-51.4c-2.7-4.7-7.6-7.3-12.7-7.2c-2.5-0.6-5.1-0.9-8-0.9l-12.2,0.5h-16.1v126.1h35.9
	c2.9,0,5.2-2.3,5.2-5.2v-77.3l23.7,31.7c2.2,3,5.6,4.9,9.3,5.3l58.2,6.4l2.5-20.8L279.4,183z"/>
<rect x="195.2" y="122.9" class="st27" width="6.6" height="127.2"/>
<polygon class="st27" points="223.2,123 213.8,111.4 198.5,126.5 185.3,111.9 173.8,123 182.7,142.8 198.5,126.6 214.4,142.8 "/>
<path class="st28" d="M200.4,129.3c0,0.9-0.8,1.7-1.7,1.7c-0.9,0-1.7-0.8-1.7-1.7c0-0.9,0.8-1.7,1.7-1.7
	C199.7,127.6,200.4,128.3,200.4,129.3z"/>
<path class="st28" d="M200.4,150.6c0,0.9-0.8,1.7-1.7,1.7c-0.9,0-1.7-0.8-1.7-1.7c0-0.9,0.8-1.7,1.7-1.7
	C199.7,148.9,200.4,149.6,200.4,150.6z"/>
<path class="st28" d="M200.4,171.9c0,0.9-0.8,1.7-1.7,1.7c-0.9,0-1.7-0.8-1.7-1.7c0-0.9,0.8-1.7,1.7-1.7
	C199.7,170.2,200.4,171,200.4,171.9z"/>
<path class="st28" d="M200.4,193.3c0,0.9-0.8,1.7-1.7,1.7c-0.9,0-1.7-0.8-1.7-1.7c0-0.9,0.8-1.7,1.7-1.7
	C199.7,191.6,200.4,192.3,200.4,193.3z"/>
<path class="st28" d="M200.4,214.6c0,0.9-0.8,1.7-1.7,1.7c-0.9,0-1.7-0.8-1.7-1.7s0.8-1.7,1.7-1.7
	C199.7,212.9,200.4,213.6,200.4,214.6z"/>
<path class="st28" d="M200.4,235.9c0,0.9-0.8,1.7-1.7,1.7c-0.9,0-1.7-0.8-1.7-1.7c0-0.9,0.8-1.7,1.7-1.7
	C199.7,234.2,200.4,235,200.4,235.9z"/>
<path d="M256,474.3l-10.2-1.8l-13.1-8.6h1.8l1.4-203.3v-10.4h-11h-5.2V250H217v0.1h-14.2v-0.5c0-0.2-0.2-0.4-0.4-0.4h-1
	c-0.2,0-0.4,0.2-0.4,0.4v0.5h-21.4v0h-2.7v0h-14.7v10.4l1.4,203.3h1.9l-13.1,8.6l-10.2,1.8c-3.6,0.6-6.3,3.8-6.3,7.4v1.3v0.2v2H164
	v-2h7.2v2h21v-4.4h-0.5c0.6-3.7,0.7-7.5,0.2-11.3l-0.6-5.6h0l7.7-166.3h0l7.7,166.3h0.1l-0.6,5.6c-0.4,3.8-0.3,7.5,0.2,11.3h-0.5
	v4.4h21v-2h7.2v2h28.2v-2V483v-1.3C262.2,478,259.6,474.9,256,474.3z"/>
<path class="st24" d="M166,58.8c0,0-1.5,4.8-1.3,10.1c0.2,4.6,0.8,8.9,0.8,8.9s-8.1,11.8-8.4,13.1c-0.4,1.2,1.2,2.7,2.4,2.9
	c1.2,0.1,3.5-0.4,4.5,0.4c0.4,0.4-0.7,3.2,0,4c0.8,0.8,2,0.9,2,0.9h2.7c0,0-2.3,0.7-2.9,1.6c-0.5,0.9-0.4,1.8-0.1,2
	c0.8,0.5,2.1,0,2.5,0.5c1.4,1.8-2.5,5.6,1.5,9.1c2.2,1.9,6.8,0.1,9.4-0.3c2.6-0.4,11.9-3.1,11.9-3.1s5.9-2.7,7.3-7
	c1.4-4.3,2.7-7.4,5.5-8.2c2.7-0.8,11.9-15.2,11.9-15.2s8.9-26.1-19.7-34.4C172.6,37.1,166,58.8,166,58.8z"/>
<path d="M184.4,70.4l5.7,23.3c0,0,0.9-15.1,2-16c1.1-0.9,7.4,8,10.9,20.1c1.1,3.8,10.3,3.2,10.3,3.2s8.3-10.7,9.6-15.3
	c1.3-4.6,2.6-9.3,2.6-12.5c0-6.4-0.9-13.7-0.9-13.7l-11.9-0.8L184.4,70.4z"/>
<path d="M167.3,74.5l1.1,4.8l8.6-1.5l-0.6-0.3C173.6,75.9,170.5,74.9,167.3,74.5L167.3,74.5z"/>
<path class="st29" d="M172.8,99l-7.5-2.5l-1.8,0.4c0,0.1,0,0.1,0,0.2v0c0,0.3,0.2,0.9,0.4,1.1c0.8,0.8,2,0.9,2,0.9h2.7
	c0,0-2.3,0.7-2.9,1.6c-0.4,0.7-0.5,1.5-0.1,2c0,0,2.1,0.4,2.8-0.3C170.6,100.2,172.8,99,172.8,99z"/>
<path class="st25" d="M163.5,64c0,0,3.8-21.4,21.4-25.8c19.8-5,31.4,4,35.2,9.5c2.4,3.6,4.5,11.8,4.5,11.8s-11.4-0.2-13.1,3.5
	c-1.7,3.8-1,6.2-1,6.2l15-0.8v4.8c0,0-23.8,1.6-33.4,0.8c-9.6-0.8-16.8-2.9-16.8-2.9s-20.8,7.6-27.1,6.5c-6.3-1.1-8.9-4.8-8.9-4.8
	L163.5,64z"/>
<polygon class="st25" points="172.8,132.3 157.6,128.9 99.9,136.6 35.6,128.7 32.8,148 98.5,160.5 162.1,158.6 "/>
</svg>
