<svg enable-background="new 0 0 2263 1989" viewBox="0 0 2263 1989" xmlns="http://www.w3.org/2000/svg"><path d="m0 0h2262.7v1988.8h-2262.7z" fill="#fff"/><path d="m1984.1 1561c39.2-101.9 60.8-212.5 60.8-328.2 0-504.5-409-913.5-913.5-913.5s-913.5 409-913.5 913.5c0 115.7 21.6 226.3 60.8 328.2z" fill="#24497f"/><g fill="#fff"><path d="m700.4 530.4c0 4.9-4 8.9-8.9 8.9s-8.9-4-8.9-8.9 4-8.9 8.9-8.9 8.9 4 8.9 8.9z"/><path d="m888.4 675.8c0 4.9-4 8.9-8.9 8.9s-8.9-4-8.9-8.9 4-8.9 8.9-8.9c4.9.1 8.9 4 8.9 8.9z"/><path d="m1243.6 469.6c0 4.9-4 8.9-8.9 8.9s-8.9-4-8.9-8.9 4-8.9 8.9-8.9c4.9.1 8.9 4 8.9 8.9z"/><path d="m1477.8 548.1c0 4.9-4 8.9-8.9 8.9s-8.9-4-8.9-8.9 4-8.9 8.9-8.9c4.9.1 8.9 4 8.9 8.9z"/><path d="m1375.3 410.2c0 4.9-4 8.9-8.9 8.9s-8.9-4-8.9-8.9 4-8.9 8.9-8.9c5 0 8.9 4 8.9 8.9z"/><path d="m958.9 530.4c0 4.9-4 8.9-8.9 8.9s-8.9-4-8.9-8.9 4-8.9 8.9-8.9 8.9 4 8.9 8.9z"/><path d="m1072 383.2c0 4.9-4 8.9-8.9 8.9s-8.9-4-8.9-8.9 4-8.9 8.9-8.9 8.9 4 8.9 8.9z"/><path d="m595.7 592c0 4.9-4 8.9-8.9 8.9s-8.9-4-8.9-8.9 4-8.9 8.9-8.9c5 .1 8.9 4 8.9 8.9z"/><path d="m559.8 746.3c0 4.9-4 8.9-8.9 8.9s-8.9-4-8.9-8.9 4-8.9 8.9-8.9c4.9.1 8.9 4 8.9 8.9z"/><path d="m727.4 843.5c0 4.9-4 8.9-8.9 8.9s-8.9-4-8.9-8.9 4-8.9 8.9-8.9c5 0 8.9 4 8.9 8.9z"/><path d="m1115.9 721.1c0 4.9-4 8.9-8.9 8.9s-8.9-4-8.9-8.9 4-8.9 8.9-8.9 8.9 4 8.9 8.9z"/><path d="m1098.2 609.8c0 4.9-4 8.9-8.9 8.9s-8.9-4-8.9-8.9 4-8.9 8.9-8.9 8.9 4 8.9 8.9z"/><path d="m1270.2 539.3c0 4.9-4 8.9-8.9 8.9s-8.9-4-8.9-8.9 4-8.9 8.9-8.9c5 0 8.9 4 8.9 8.9z"/><path d="m1660 592c0 4.9-4 8.9-8.9 8.9s-8.9-4-8.9-8.9 4-8.9 8.9-8.9 8.9 4 8.9 8.9z"/><path d="m1350.1 712.2c0 4.9-4 8.9-8.9 8.9s-8.9-4-8.9-8.9 4-8.9 8.9-8.9 8.9 4 8.9 8.9z"/><path d="m1509.7 737.5c0 4.9-4 8.9-8.9 8.9s-8.9-4-8.9-8.9 4-8.9 8.9-8.9 8.9 4 8.9 8.9z"/><path d="m1777.1 737.5c0 4.9-4 8.9-8.9 8.9s-8.9-4-8.9-8.9 4-8.9 8.9-8.9 8.9 4 8.9 8.9z"/><path d="m1668.9 852.3c0 4.9-4 8.9-8.9 8.9s-8.9-4-8.9-8.9 4-8.9 8.9-8.9 8.9 4 8.9 8.9z"/><path d="m1895.5 985.5c0 4.9-4 8.9-8.9 8.9s-8.9-4-8.9-8.9 4-8.9 8.9-8.9c4.9.1 8.9 4 8.9 8.9z"/><path d="m1707.9 1086.5c0 4.9-4 8.9-8.9 8.9s-8.9-4-8.9-8.9 4-8.9 8.9-8.9 8.9 4 8.9 8.9z"/><path d="m1509.7 922.8c0 4.9-4 8.9-8.9 8.9s-8.9-4-8.9-8.9 4-8.9 8.9-8.9c4.9.1 8.9 4 8.9 8.9z"/><path d="m1617.5 994.4c0 4.9-4 8.9-8.9 8.9s-8.9-4-8.9-8.9 4-8.9 8.9-8.9 8.9 4 8.9 8.9z"/><path d="m1296.8 1061.6c0 4.9-4 8.9-8.9 8.9s-8.9-4-8.9-8.9 4-8.9 8.9-8.9c5 .1 8.9 4 8.9 8.9z"/><path d="m1366.5 881.6c0 4.9-4 8.9-8.9 8.9s-8.9-4-8.9-8.9 4-8.9 8.9-8.9 8.9 4 8.9 8.9z"/><path d="m1170.4 922.8c0 4.9-4 8.9-8.9 8.9s-8.9-4-8.9-8.9 4-8.9 8.9-8.9c5 .1 8.9 4 8.9 8.9z"/><path d="m1460 1095.4c0 4.9-4 8.9-8.9 8.9s-8.9-4-8.9-8.9 4-8.9 8.9-8.9c5 0 8.9 4 8.9 8.9z"/><path d="m1895.5 830.2c0 4.9-4 8.9-8.9 8.9s-8.9-4-8.9-8.9 4-8.9 8.9-8.9 8.9 4 8.9 8.9z"/><path d="m409.5 830.2c0 4.9-4 8.9-8.9 8.9s-8.9-4-8.9-8.9 4-8.9 8.9-8.9 8.9 4 8.9 8.9z"/><path d="m527.9 1003.3c0 4.9-4 8.9-8.9 8.9s-8.9-4-8.9-8.9 4-8.9 8.9-8.9 8.9 4 8.9 8.9z"/><path d="m299.1 1113.1c0 4.9-4 8.9-8.9 8.9s-8.9-4-8.9-8.9 4-8.9 8.9-8.9 8.9 4 8.9 8.9z"/><path d="m418.3 1281.2c0 4.9-4 8.9-8.9 8.9s-8.9-4-8.9-8.9 4-8.9 8.9-8.9c5 0 8.9 4 8.9 8.9z"/><path d="m718.6 1130.8c0 4.9-4 8.9-8.9 8.9s-8.9-4-8.9-8.9 4-8.9 8.9-8.9c4.9.1 8.9 4 8.9 8.9z"/><path d="m856.5 976.7c0 4.9-4 8.9-8.9 8.9s-8.9-4-8.9-8.9 4-8.9 8.9-8.9 8.9 4 8.9 8.9z"/><path d="m1040.1 1095.4c0 4.9-4 8.9-8.9 8.9s-8.9-4-8.9-8.9 4-8.9 8.9-8.9 8.9 4 8.9 8.9z"/><circle cx="870.7" cy="1237.3" r="8.9"/><path d="m646.3 1314.4c0 4.9-4 8.9-8.9 8.9s-8.9-4-8.9-8.9 4-8.9 8.9-8.9c4.9.1 8.9 4 8.9 8.9z"/><path d="m1970 1158.8c0 4.9-4 8.9-8.9 8.9s-8.9-4-8.9-8.9 4-8.9 8.9-8.9 8.9 4 8.9 8.9z"/><path d="m1858.3 1270.5c0 4.9-4 8.9-8.9 8.9s-8.9-4-8.9-8.9 4-8.9 8.9-8.9 8.9 4 8.9 8.9z"/></g><path d="m1887.8 1154.7v-52.5h-13.5v-56.2h-7.3v-37.4h-68.7v37.4h-7.3v56.2h-11.4v96.7h-36.4v-167.5h-84.3v-112.3h-47.8v-29.1h-30.2v-37.5h-78v332.9h-73.8v-108.2h-13.6v-60.3h-135.2v60.3h-9.3v143.5h-32.3v-90.4h-64.5v-125.7h-10.4v-29.3h-94.6v29.3h-8.3v161h-31.2v-66.5h-7.3v-21.9h-66.6v21.9h-8.3v121.6h-32.3v-83.2h-56.1v-87.3l-104-45.6v220.8h-45.8v-59.8h-67.6v-88.4h-14.6v-27h-80.1v27h-7.3v151.9h-40.5v-33.3h-23.2v-208.6h-12.3v-28.6h-11.1v-24.9h-30.2v-150.8h-5.2v150.8h-30.1v24.9h-11.1v28.6h-12.3v208.6h-23.7v300.7h1625.4v-309.1z" fill="#12263c"/><path d="m897 1483.9c0 15.8-84.3 28.6-188.4 28.6-104 0-188.3-12.8-188.3-28.6l44.1-80h288.6z" fill="#d3eae9"/><path d="m853 1403.9c0 12.1-64.6 21.9-144.3 21.9s-144.3-9.8-144.3-21.9 64.6-21.9 144.3-21.9 144.3 9.8 144.3 21.9z" fill="#558380"/><path d="m766.5 1087-78.2-78.2-122.3 122.3.1.1c-.2.1-.4.2-.6.3-4.6 4.6 9.1 25.9 30.7 47.5s42.9 35.3 47.5 30.7c.2-.1.2-.4.3-.6l.1.1z" fill="#436763"/><path d="m744.3 1401.1h-71.2l15.5-277.1h40.2z" fill="#86c4bf"/><path d="m708.7 1401.1h35.6l-15.5-277.1h-20.1z" fill="#d3eae9"/><path d="m802.2 1031.9c11.4 43.9-15 88.7-58.9 100s-88.7-15-100-58.9c-11.4-43.9 15-88.7 58.9-100s88.6 15 100 58.9z" fill="#5a7c7a"/><path d="m1059.3 1157.2-228.7-224.8-216.2-236.8s-154.6 98.6 91.8 356.7c248.9 255.7 353.1 104.9 353.1 104.9z" fill="#d3eae9"/><path d="m730.2 1030.2c-179.5-188-146.2-291.3-114.9-333.6l-.9-1s-154.6 98.6 91.8 356.7c242.2 248.8 347.3 112.7 352.8 105.2-43.5 29.7-148 58.5-328.8-127.3z" fill="#adccca"/><path d="m1059.3 1157.2c-15.5 15-81.7-27-164-100.1-2.9-2.6-5.9-5.2-8.9-8-28.1-25.4-57.9-54.2-88.1-85.5-32-33.2-61.3-65.9-86.6-96.5-2.5-3-4.9-5.9-7.3-8.8-67.5-82.6-105.1-148-89.9-162.7 17.8-17.1 102.1 40.5 201 134.1 2.9 2.8 5.9 5.6 8.8 8.4 16.8 16.1 33.9 33.2 51.1 51.1 13 13.5 25.5 26.8 37.4 40 2.9 3.2 5.7 6.3 8.6 9.5 96.7 107.7 156.4 200.6 137.9 218.5z" fill="#7b9f9d"/><path d="m975 801.4c0 15.7-12.8 28.5-28.5 28.5s-28.5-12.8-28.5-28.5 12.8-28.5 28.5-28.5 28.5 12.8 28.5 28.5z" fill="#fff"/><path d="m953.4 794.3-31.9 144.4-26.2 118.3c-2.9-2.6-5.9-5.2-8.9-8l26.5-119.9 26.7-120.7-115.3 29.6-112.6 28.9c-2.5-3-4.9-5.9-7.3-8.8l111.1-28.6z" fill="#fff"/><path d="m2044.9 1232.8c0-29.5-1.5-58.7-4.2-87.5-21.6 31.7-20.6 77-20.6 77-102.1-19.7-99 74-99 74-127.7-47.9-102.2 76.6-102.2 76.6-153.2-57.5-201.1 83-201.1 83-22.3-114.9-143.7-61.4-143.7-61.4 3.2-98.1-95.8-55.4-95.8-55.4-16-177.5-211.5-68.3-211.5-68.3-150.8-70.2-191.8 68.3-191.8 68.3-125.5-40.2-120.3 72.1-120.3 72.1-140.3-63.8-197.7 44.8-197.7 44.8-41.5-118.1-130.9-47.9-130.9-47.9-28.7-84.6-89.4-54.3-89.4-54.3 3.2-83-89.4-57.5-89.4-57.5-29.7-85.3-88.9-80.6-129.5-64.9v1.3c0 115.7 21.6 226.3 60.8 328.2h56.8l1661.8-36.5c30.9-91.5 47.7-189.6 47.7-291.6z" fill="#478f34"/><path d="m2087.5 1556.6c0 29.8-28.6 54-63.9 54h-1784.5c-35.3 0-63.9-24.2-63.9-54v-9c0-29.8 28.6-54 63.9-54h1784.5c35.3 0 63.9 24.2 63.9 54z" fill="#6b7475"/><path d="m175.3 1557.4c.5 29.5 28.9 53.2 63.8 53.2h1784.5c34.9 0 63.3-23.8 63.8-53.2z" fill="#3c4444" opacity=".6"/><path d="m1508.5 556.5 93.2 148.4 6.4-4-93.2-148.4z" fill="#92929b"/><path d="m1419.2 612.6 93.2 148.4 6.4-4.1-93.2-148.3z" fill="#92929b"/><path d="m1493.5 628.3h20.9v67.1h-20.9z" fill="#171721" transform="matrix(.8468 -.5319 .5319 .8468 -121.6318 901.3764)"/><path d="m1340.6 760 4 6.4 30.7-19.3-4-6.4z" fill="#acacc6"/><path d="m1366.3 743.9 4 6.4 34.3-21.6-4-6.4z" fill="#2b2b3a"/><path d="m1380.4 681 72.4-45.4 24.3 3.2 37.1 59.1-8.8 21.5-72.3 45.4z" fill="#d3d3e5"/><path d="m1403.9 663.5h37.3v99h-37.3z" fill="#acacc6" transform="matrix(.8468 -.5319 .5319 .8468 -161.3237 865.8819)"/><path d="m1405.6 669.5h14.9v99h-14.9z" fill="#8a8aaa" transform="matrix(.8471 -.5315 .5315 .8471 -166.0293 860.9116)"/><path d="m1477.1 638.8 37.1 59.1-8.8 21.5-52.6-83.8z" fill="#fbfcfe"/><path d="m1371.8 697.9 42.3 67.3 19-.4-52.7-83.8z" fill="#67678c"/><path d="m1521 578.9h72.5v99h-72.5z" fill="#d3d3e5" transform="matrix(.8468 -.532 .532 .8468 -95.6474 924.6987)"/><path d="m1523.7 588.2h37.3v99h-37.3z" fill="#acacc6" transform="matrix(.8467 -.532 .532 .8467 -102.8766 918.3663)"/><path d="m1525.4 594.2h14.9v99h-14.9z" fill="#8a8aaa" transform="matrix(.8469 -.5318 .5318 .8469 -107.5981 913.6851)"/><path d="m1491.7 622.6 42.3 67.3 18.9-.3-52.7-83.9z" fill="#67678c"/><path d="m1364.5 702.5 42.3 67.3 7.3-4.6-42.3-67.3z" fill="#2b2b3a"/><path d="m1312.4 689c22.6.1 50.5 18.9 69.7 49.4s24 63.8 14.3 84.2z" fill="#d3d3e5"/><path d="m1380.9 736.5c.4.6.8 1.3 1.2 1.9 19.2 30.5 24 63.8 14.3 84.2l-28.5-45.4c11-10 13.9-25.1 13-40.7z" fill="#acacc6"/><path d="m1336.3 758.2c-3.5 2.2-4.6 6.9-2.4 10.4s6.9 4.6 10.4 2.4 4.6-6.9 2.4-10.4-6.9-4.6-10.4-2.4z" fill="#d3d3e5"/><path d="m1476.9 625.2c-.5.3-.7 1-.3 1.5l47.2 75.1c.3.5 1 .7 1.5.3l5.5-3.5c.5-.3.7-1 .3-1.5l-47.2-75.1c-.3-.5-1-.7-1.5-.3z" fill="#2b2b3a"/><path d="m1566.7 575.4 42.4 67.4 14.2-16.1-35.9-57.1z" fill="#acacc6"/><path d="m1604.5 565.5h11.5v59.1h-11.5z" fill="#8686a3" transform="matrix(.8468 -.5319 .5319 .8468 -69.8427 947.7087)"/><path d="m1216.1 320.5 195.9 311.9 123.1-77.3-195.9-311.9z" fill="#fff"/><path d="m1226.9 325.3 185.5 295.4 111.9-70.3-185.5-295.4z" fill="#648dc9"/><path d="m1305.2 433.9h136.2v8.1h-136.2z" fill="#fff" transform="matrix(.8468 -.5319 .5319 .8468 -22.5622 797.6323)"/><path d="m1390.5 565.1h132.2v3.2h-132.2z" fill="#fff" transform="matrix(.8467 -.5321 .5321 .8467 -78.2595 861.8601)"/><path d="m1379 546.8h132.2v3.2h-132.2z" fill="#fff" transform="matrix(.8471 -.5314 .5314 .8471 -70.5078 851.782)"/><path d="m1376.7 563.9 1.8 2.7 111.9-70.3-1.7-2.7z" fill="#fff"/><path d="m1365.2 545.6 1.7 2.7 112-70.3-1.7-2.7z" fill="#fff"/><path d="m1344.5 491.8h132.2v3.2h-132.2z" fill="#fff" transform="matrix(.846 -.5331 .5331 .846 -45.912 827.9622)"/><path d="m1342.2 508.9 1.7 2.8 112-70.3-1.8-2.8z" fill="#fff"/><path d="m1330.7 490.6 1.7 2.8 112-70.3-1.8-2.8z" fill="#fff"/><path d="m1298.4 418.6h132.2v3.2h-132.2z" fill="#fff" transform="matrix(.8475 -.5309 .5309 .8475 -14.9144 788.4923)"/><path d="m1286.9 400.3h132.2v3.2h-132.2z" fill="#fff" transform="matrix(.8475 -.5309 .5309 .8475 -6.9553 779.5482)"/><path d="m1275.4 381.9h132.2v3.2h-132.2z" fill="#fff" transform="matrix(.8464 -.5326 .5326 .8464 1.8038 773.3726)"/><path d="m1263.9 363.6h132.2v3.2h-132.2z" fill="#fff" transform="matrix(.8475 -.5309 .5309 .8475 8.982 761.7415)"/><path d="m1252.4 345.3h132.2v3.2h-132.2z" fill="#fff" transform="matrix(.8466 -.5323 .5323 .8466 17.6264 754.9978)"/><path d="m1240.9 327h132.2v3.2h-132.2z" fill="#fff" transform="matrix(.8471 -.5314 .5314 .8471 25.1981 744.7875)"/><path d="m1229.4 308.7h132.2v3.2h-132.2z" fill="#fff" transform="matrix(.846 -.5331 .5331 .846 34.0422 738.4418)"/><path d="m1409.8 240.9h3.2v348.8h-3.2z" fill="#fff" transform="matrix(.8468 -.5319 .5319 .8468 -4.655 814.4243)"/><path d="m1386.3 255.6h3.2v348.8h-3.2z" fill="#fff" transform="matrix(.8468 -.5319 .5319 .8468 -16.107 804.2028)"/><path d="m1362.8 270.4h3.2v348.8h-3.2z" fill="#fff" transform="matrix(.8468 -.5319 .5319 .8468 -27.5678 793.9423)"/><path d="m1339.3 285.2h3.2v348.8h-3.2z" fill="#fff" transform="matrix(.8468 -.5319 .5319 .8468 -39.0191 783.7314)"/><path d="m1576.2 688.7h145.3v368.3h-145.3z" fill="#fff" transform="matrix(.8468 -.5319 .5319 .8468 -211.6866 1010.8659)"/><path d="m1582.8 698.5h132.2v348.8h-132.2z" fill="#648dc9" transform="matrix(.8468 -.532 .532 .8468 -211.6856 1010.8847)"/><path d="m1578.5 869h136.2v8.1h-136.2z" fill="#fff" transform="matrix(.8464 -.5325 .5325 .8464 -212.0287 1010.9223)"/><path d="m1663.8 1000.2h132.2v3.2h-132.2z" fill="#fff" transform="matrix(.8473 -.5311 .5311 .8473 -267.9258 1071.7268)"/><path d="m1652.3 981.9h132.2v3.2h-132.2z" fill="#fff" transform="matrix(.846 -.5331 .5331 .846 -259.7597 1067.5127)"/><path d="m1650.1 999 1.7 2.7 111.9-70.3-1.7-2.8z" fill="#fff"/><path d="m1638.5 980.6 1.8 2.8 111.9-70.3-1.7-2.8z" fill="#fff"/><path d="m1617.8 926.9h132.2v3.2h-132.2z" fill="#fff" transform="matrix(.8468 -.5319 .5319 .8468 -235.931 1037.9688)"/><path d="m1606.3 908.6h132.2v3.2h-132.2z" fill="#fff" transform="matrix(.8466 -.5323 .5323 .8466 -227.9014 1029.8073)"/><path d="m1594.8 890.3h132.2v3.2h-132.2z" fill="#fff" transform="matrix(.8466 -.5323 .5323 .8466 -219.9167 1020.8748)"/><path d="m1571.7 853.6h132.2v3.2h-132.2z" fill="#fff" transform="matrix(.8455 -.534 .534 .8455 -203.6431 1006.7482)"/><path d="m1569.5 870.7 1.7 2.8 111.9-70.3-1.7-2.8z" fill="#fff"/><path d="m1558 852.4 1.7 2.8 111.9-70.4-1.7-2.7z" fill="#fff"/><path d="m1537.2 798.7h132.2v3.2h-132.2z" fill="#fff" transform="matrix(.8469 -.5317 .5317 .8469 -180.1081 975.0087)"/><path d="m1525.7 780.4h132.2v3.2h-132.2z" fill="#fff" transform="matrix(.8475 -.5309 .5309 .8475 -172.3155 964.29)"/><path d="m1523.5 797.5 1.7 2.7 111.9-70.3-1.7-2.8z" fill="#fff"/><path d="m1502.7 743.7h132.2v3.2h-132.2z" fill="#fff" transform="matrix(.8469 -.5317 .5317 .8469 -156.1671 948.2831)"/><path d="m1590.6 703.5 185.6 295.4 2.7-1.7-185.5-295.4z" fill="#fff"/><path d="m1659.6 690.7h3.2v348.8h-3.2z" fill="#fff" transform="matrix(.8468 -.5319 .5319 .8468 -205.6614 1016.2576)"/><path d="m1636.1 705.5h3.2v348.8h-3.2z" fill="#fff" transform="matrix(.8468 -.5319 .5319 .8468 -217.1209 1005.9781)"/><path d="m1612.6 720.2h3.3v348.8h-3.3z" fill="#fff" transform="matrix(.8468 -.5319 .5319 .8468 -228.5811 995.6853)"/><path d="m1313.1 868.2c-23.9-9-44.7-24.4-59.6-46s-21.9-46.5-21.8-72.1" fill="none" stroke="#fff" stroke-linecap="round" stroke-miterlimit="10" stroke-width="12.2602"/><path d="m1328.8 839c-18.9-7.1-35.4-19.3-47.1-36.3s-17.3-36.7-17.2-57" fill="none" stroke="#fff" stroke-linecap="round" stroke-miterlimit="10" stroke-width="12.2602"/><path d="m1340.5 809.2c-12.9-4.9-24.2-13.2-32.2-24.8s-11.8-25.1-11.8-38.9" fill="none" stroke="#fff" stroke-linecap="round" stroke-miterlimit="10" stroke-width="12.2602"/><path d="m1062.1 793c-1.4-25.5-9.9-50-26-70.7s-37.8-34.8-62.2-42.4" fill="none" stroke="#fff" stroke-linecap="round" stroke-miterlimit="10" stroke-width="12.2602"/><path d="m1029.6 799.3c-1.1-20.2-7.8-39.5-20.5-55.8s-29.9-27.5-49.2-33.5" fill="none" stroke="#fff" stroke-linecap="round" stroke-miterlimit="10" stroke-width="12.2602"/><path d="m997.7 801.5c-.8-13.8-5.3-27-14-38.1-8.7-11.2-20.4-18.8-33.6-22.9" fill="none" stroke="#fff" stroke-linecap="round" stroke-miterlimit="10" stroke-width="12.2602"/></svg>